<svg width="500" height="500" viewBox="0 0 500 500" fill="none" xmlns="http://www.w3.org/2000/svg">
<path d="M0 16C0 7.16345 7.16345 0 16 0H485C493.284 0 500 6.71573 500 15V485C500 493.284 493.284 500 485 500H15C6.71571 500 0 493.284 0 485V16Z" fill="white"/>
<path d="M0 14.0866V498.5C0 499.052 0.447715 499.5 0.999999 499.5H497.262C498.127 499.5 498.584 498.477 498.007 497.833L448.298 442.333C448.108 442.121 447.838 442 447.553 442H71C70.4477 442 70 441.552 70 441V88.8866C70 88.6378 69.9073 88.398 69.7399 88.2139L1.73994 13.4139C1.1251 12.7376 0 13.1726 0 14.0866Z" fill="url(#paint0_linear_8_48)"/>
<path d="M87.5 79.5V423C87.5 423.552 87.9477 424 88.5 424H155C155.552 424 156 423.552 156 423V212.615C156 211.517 157.513 211.221 157.926 212.238L242.747 420.877C242.9 421.254 243.266 421.5 243.673 421.5H290.327C290.734 421.5 291.1 421.254 291.253 420.877L376.074 212.238C376.487 211.221 378 211.517 378 212.615V423C378 423.552 378.448 424 379 424H445.5C446.052 424 446.5 423.552 446.5 423V79.5C446.5 78.9477 446.052 78.5 445.5 78.5H366.171C365.765 78.5 365.399 78.7451 365.245 79.1205L268.755 314.379C268.601 314.755 268.235 315 267.829 315H265.169C264.764 315 264.399 314.756 264.245 314.381L167.255 79.1189C167.101 78.7444 166.736 78.5 166.331 78.5H88.5C87.9477 78.5 87.5 78.9477 87.5 79.5Z" fill="url(#paint1_linear_8_48)"/>
<path d="M74.7019 58.1672L24.9932 2.66717C24.4163 2.02311 24.8735 1 25.7381 1H220.831C221.236 1 221.601 1.24434 221.755 1.61881L264.745 105.881C264.899 106.256 265.264 106.5 265.669 106.5H267.331C267.736 106.5 268.101 106.256 268.255 105.881L311.245 1.61881C311.399 1.24434 311.764 1 312.169 1H497.262C498.127 1 498.584 2.02311 498.007 2.66717L448.298 58.1672C448.108 58.379 447.838 58.5 447.553 58.5H352.171C351.765 58.5 351.399 58.7451 351.245 59.1204L268.255 261.38C268.101 261.755 267.735 262 267.329 262H265.671C265.265 262 264.899 261.755 264.745 261.38L181.755 59.1204C181.601 58.7451 181.235 58.5 180.829 58.5H75.4468C75.1625 58.5 74.8916 58.379 74.7019 58.1672Z" fill="url(#paint2_linear_8_48)"/>
<defs>
<linearGradient id="paint0_linear_8_48" x1="284" y1="459.5" x2="-8" y2="-40.5" gradientUnits="userSpaceOnUse">
<stop offset="0.425967" stop-color="#2288FF"/>
<stop offset="1" stop-color="#2288FF" stop-opacity="0"/>
</linearGradient>
<linearGradient id="paint1_linear_8_48" x1="206.5" y1="155" x2="50" y2="17" gradientUnits="userSpaceOnUse">
<stop stop-color="#2288FF"/>
<stop offset="1" stop-color="#2288FF" stop-opacity="0.416769"/>
<stop offset="1" stop-color="#2288FF" stop-opacity="0.286545"/>
<stop offset="1" stop-color="#2288FF" stop-opacity="0"/>
</linearGradient>
<linearGradient id="paint2_linear_8_48" x1="364" y1="54" x2="13.5" y2="-120.5" gradientUnits="userSpaceOnUse">
<stop offset="0.259536" stop-color="#2288FF"/>
<stop offset="1" stop-color="#2288FF" stop-opacity="0"/>
</linearGradient>
</defs>
</svg>
